<?xml version="1.0" encoding="UTF-8"?>
<svg version="1.1" xmlns="http://www.w3.org/2000/svg" width="1951" height="676">
<path d="M0 0 C6.74876499 -0.14502335 6.74876499 -0.14502335 8.93554879 -0.19198443 C13.05970129 -0.28056557 17.18384983 -0.36932604 21.30799234 -0.45837164 C29.65320285 -0.63837567 37.99843294 -0.81710274 46.34379025 -0.99018486 C51.0326865 -1.08746273 55.72156359 -1.18563998 60.41043091 -1.28430176 C61.33664408 -1.30377431 62.26285724 -1.32324686 63.21713748 -1.34330949 C75.06278815 -1.59397767 86.90434351 -1.89546417 98.74649012 -2.27982187 C105.80483418 -2.50255998 112.85978714 -2.628572 119.92161691 -2.65975714 C124.11721704 -2.68165154 128.29766116 -2.76559944 132.48927307 -2.95611572 C159.54249662 -4.13213843 159.54249662 -4.13213843 166.63436365 1.23745537 C173.24382927 7.62753679 176.94973959 16.13238972 180.44516182 24.4817276 C182.81660963 29.84781615 185.91162579 34.6909501 189.0625 39.625 C190.20690763 41.49638998 191.34797839 43.36982831 192.484375 45.24609375 C196.2419683 51.40460701 200.0268849 57.54618626 203.8125 63.6875 C209.45015372 72.83406114 215.05321742 82.00073305 220.625 91.1875 C220.9816272 91.7754837 221.33825439 92.36346741 221.70568848 92.9692688 C223.46966217 95.87790521 225.23319793 98.7868069 226.99658203 101.69580078 C234.89298807 114.71919334 242.82061596 127.72245575 250.8125 140.6875 C256.45015372 149.83406114 262.05321742 159.00073305 267.625 168.1875 C267.9816272 168.7754837 268.33825439 169.36346741 268.70568848 169.9692688 C270.46966217 172.87790521 272.23319793 175.7868069 273.99658203 178.69580078 C281.89298807 191.71919334 289.82061596 204.72245575 297.8125 217.6875 C303.08722153 226.24523792 308.33459257 234.81882037 313.54864502 243.41360474 C314.61554545 245.17191835 315.68341835 246.92963821 316.75146484 248.68725586 C320.22488601 254.40627274 323.6820717 260.13444778 327.11328125 265.87890625 C327.75894043 266.95438721 328.40459961 268.02986816 329.06982422 269.13793945 C330.28972374 271.17062693 331.50385689 273.20678927 332.71142578 275.24682617 C333.24880371 276.13990479 333.78618164 277.0329834 334.33984375 277.953125 C335.04161743 279.13116699 335.04161743 279.13116699 335.75756836 280.33300781 C336.1675708 280.88311523 336.57757324 281.43322266 337 282 C337.66 282 338.32 282 339 282 C340.16207907 280.52032697 340.16207907 280.52032697 341.2578125 278.5390625 C341.70987061 277.77142578 342.16192871 277.00378906 342.62768555 276.21289062 C343.12179932 275.35888672 343.61591309 274.50488281 344.125 273.625 C345.2159152 271.77253403 346.30844293 269.921017 347.40234375 268.0703125 C347.98612793 267.08063477 348.56991211 266.09095703 349.17138672 265.07128906 C352.2836247 259.84405892 355.48810443 254.67417594 358.6875 249.5 C364.3306163 240.35650022 369.93270472 231.18976869 375.5 222 C380.96581887 212.97868206 386.46273528 203.97774276 392 195 C397.57601347 185.95809528 403.11631415 176.89550742 408.625 167.8125 C408.98189911 167.22406311 409.33879822 166.63562622 409.70651245 166.02935791 C411.47021051 163.12117867 413.23347524 160.21273695 414.99658203 157.30419922 C423.55694745 143.18575106 432.16397574 129.0973291 440.82836914 115.04248047 C446.1133837 106.46091034 451.34927614 97.85043738 456.57192993 89.23086548 C461.68128974 80.79983264 466.82476685 72.39083761 472 64 C477.30580423 55.395619 482.58469042 46.77558811 487.83071899 38.13467407 C488.92201118 36.33800038 490.01497592 34.54235268 491.1081543 32.74682617 C494.09428476 27.8362132 497.06606694 22.92089077 499.9296875 17.9375 C500.34355713 17.22295654 500.75742676 16.50841309 501.18383789 15.7722168 C502.21270068 13.9857834 503.22632669 12.19059664 504.23828125 10.39453125 C506.25604456 7.65198378 506.78350488 7.54109313 510 7 C511.33885157 6.90471026 512.68142661 6.85442735 514.02360535 6.84178162 C514.81653488 6.8319928 515.60946442 6.82220398 516.42642212 6.81211853 C517.28883514 6.80636307 518.15124817 6.8006076 519.03979492 6.79467773 C519.95653488 6.78477814 520.87327484 6.77487854 521.8177948 6.76467896 C524.87199307 6.73294789 527.92620522 6.70818048 530.98046875 6.68359375 C533.14423455 6.66295473 535.30799695 6.64195684 537.47175598 6.62062073 C542.04421867 6.57654662 546.61669511 6.53570483 551.18920898 6.49731445 C556.88797929 6.44938818 562.58667143 6.39557996 568.2853651 6.33933926 C572.78496094 6.29536052 577.28457796 6.25395052 581.78420448 6.21324348 C583.87330926 6.19423585 585.9624097 6.17474232 588.05150414 6.15463066 C612.36700228 5.92521409 636.68370453 5.98210603 661 6 C661.05226407 121.61214989 661.02451506 237.22383789 660.61941843 423.6607262 C660.57400246 443.14436711 660.53372266 462.62801543 660.49534739 482.11167135 C660.45500516 502.56378408 660.41100561 523.01588609 660.36312145 543.46798259 C660.33671171 554.78009603 660.31177781 566.09220793 660.29092598 577.40433311 C660.27347188 586.86106637 660.25266864 596.31778453 660.22733159 605.77450009 C660.21456939 610.57421504 660.20342931 615.37391958 660.19658089 620.17364693 C660.1902946 624.55263637 660.17948828 628.93158971 660.1649667 633.31055937 C660.16051929 634.89639563 660.15776903 636.48223769 660.15683801 638.06807991 C660.15533743 640.21127505 660.14779718 642.3543644 660.1386652 644.49753857 C660.13600716 645.68967156 660.13334911 646.88180455 660.13061053 648.11006278 C660 651 660 651 659 654 C646.45140167 654.26710452 633.90269051 654.52811 621.35382366 654.78230286 C615.52040782 654.90063691 609.68704125 655.02071267 603.85375977 655.14550781 C598.17375897 655.26694719 592.49366506 655.38285064 586.8134861 655.49563599 C584.69809077 655.53847481 582.58272811 655.58297851 580.46741295 655.62960815 C555.31531163 656.18112906 530.15656952 656.0422956 505 656 C504.99365209 654.32547477 504.99365209 654.32547477 504.98717594 652.61712074 C504.88422194 625.49281764 504.77819858 598.36852774 504.66888306 571.2442495 C504.65513002 567.83112735 504.64140047 564.41800511 504.62768555 561.00488281 C504.62495724 560.3260105 504.62222894 559.64713819 504.61941796 558.94769399 C504.57915964 548.91760823 504.54046205 538.88751733 504.50268555 528.85742188 C504.44368907 513.23045581 504.38193833 497.60350259 504.31640625 481.9765625 C504.31099335 480.68578954 504.30558045 479.39501657 504.30000353 478.06512928 C504.05570534 420.37488433 503.56616809 362.68791374 503 305 C502.46960114 305.89475037 501.93920227 306.78950073 501.39273071 307.71136475 C499.38117821 311.10433129 497.36875981 314.49678362 495.35610962 317.88909912 C494.49329226 319.34363522 493.63069454 320.79830163 492.76834106 322.25311279 C483.9435498 337.14008488 474.96772041 351.93271445 465.95825195 366.70849609 C463.51182882 370.72111141 461.06714645 374.73478024 458.625 378.75 C458.27741638 379.32141724 457.92983276 379.89283447 457.57171631 380.48156738 C451.81637066 389.9495781 446.14509936 399.46592738 440.5 409 C434.51061507 419.11554044 428.48435319 429.20640321 422.375 439.25 C421.85338287 440.10760925 421.85338287 440.10760925 421.32122803 440.98254395 C418.5364429 445.55961348 415.74745795 450.13411982 412.95825195 454.70849609 C410.51182882 458.72111141 408.06714645 462.73478024 405.625 466.75 C405.27741638 467.32141724 404.92983276 467.89283447 404.57171631 468.48156738 C398.40833622 478.62082787 392.34390814 488.81726178 386.29959106 499.02783203 C379.91494408 509.81092152 373.45301957 520.5442181 366.93286133 531.24584961 C362.81878757 537.99923224 358.73775421 544.77069012 354.6875 551.5625 C348.9633706 561.15039209 343.00980026 570.58915521 337 580 C333.96353351 577.16193311 331.78539199 574.31726467 329.63671875 570.765625 C328.68889526 569.21041138 328.68889526 569.21041138 327.72192383 567.6237793 C327.05056396 566.51043213 326.3792041 565.39708496 325.6875 564.25 C324.61479275 562.48592855 323.53993793 560.72317772 322.46495056 558.960495 C321.7298414 557.75491107 320.99535982 556.54894426 320.26148987 555.34260559 C316.66055049 549.42700805 312.99244564 543.55423349 309.3125 537.6875 C304.15111363 529.44808712 299.01722567 521.19245136 293.90673828 512.92138672 C289.85623223 506.37087237 285.77553435 499.83964492 281.6875 493.3125 C276.35427778 484.79606907 271.06914146 476.25139544 265.8125 467.6875 C261.2542347 460.26185968 256.6710416 452.85525477 252 445.5 C247.32895779 438.14474426 242.74582831 430.73810235 238.1875 423.3125 C230.52574261 410.83241129 222.77686997 398.40859189 215 386 C207.28767815 373.69439957 199.60058391 361.37501445 192 349 C186.61379704 340.23084193 181.2014592 331.47876081 175.75 322.75 C175.12996094 321.75613281 174.50992188 320.76226562 173.87109375 319.73828125 C173.28972656 318.80886719 172.70835937 317.87945312 172.109375 316.921875 C171.60374023 316.11331055 171.09810547 315.30474609 170.57714844 314.47167969 C168.75790147 311.62058738 166.87901328 308.81197567 165 306 C164.98787376 306.96749058 164.98787376 306.96749058 164.97550255 307.95452642 C164.49396184 346.36913883 164.00980013 384.78371743 163.52233625 423.19825515 C163.46352122 427.83334174 163.40472761 432.4684286 163.34594727 437.10351562 C163.33424712 438.02609502 163.32254697 438.94867441 163.31049227 439.89921075 C163.12226654 454.74518189 162.93576737 469.59117423 162.74993116 484.43717545 C162.55853503 499.72419991 162.36522579 515.01119935 162.17022032 530.2981782 C162.06103039 538.86199311 161.95267242 547.42581673 161.84651375 555.9896698 C160.98533711 625.39506439 160.98533711 625.39506439 160 658 C124.36120415 658.90893604 88.73335373 659.11255126 53.08417511 659.12338257 C49.55055977 659.12500548 46.01695079 659.1285716 42.4833374 659.13256836 C36.8605851 659.13841242 31.23786003 659.13865209 25.61510658 659.13431931 C23.50673754 659.1333183 21.3983671 659.13391978 19.28999901 659.13615799 C16.38934978 659.13868866 13.4887782 659.13493197 10.58813477 659.12939453 C9.72582434 659.13142128 8.86351391 659.13344803 7.97507286 659.13553619 C2.11429095 659.11429095 2.11429095 659.11429095 1 658 C0.8969319 655.87955413 0.86598112 653.75560603 0.8613348 651.63266182 C0.85849258 650.95592356 0.85565036 650.2791853 0.85272202 649.58193982 C0.84431306 647.28371008 0.84310164 644.98553037 0.84178162 642.68728638 C0.83721876 641.03171445 0.83221915 639.37614367 0.82681805 637.72057426 C0.81316521 633.14034978 0.80579592 628.56013278 0.79939139 623.97989321 C0.79140491 619.03769843 0.77768857 614.09551922 0.76467896 609.15333557 C0.73992491 599.3977851 0.72056401 589.64223071 0.70292621 579.88666506 C0.68180066 568.3154967 0.65535355 556.74434219 0.62875474 545.17318533 C0.58083501 524.24664943 0.53775175 503.32010627 0.49731445 482.39355469 C0.45907144 462.6048092 0.41770766 442.81607415 0.37231445 423.02734375 C0.0919611 300.62428715 -0.05034428 178.22188368 0 0 Z " fill="#F1F2F2" transform="translate(10,10)"/>
<path d="M0 0 C0.84827362 0.00444122 1.69654724 0.00888245 2.57052612 0.01345825 C3.53137115 0.01360931 4.49221619 0.01376038 5.48217773 0.01391602 C6.52179657 0.02423859 7.56141541 0.03456116 8.63253784 0.04519653 C9.6951181 0.04802643 10.75769836 0.05085632 11.85247803 0.05377197 C15.25584033 0.06499264 18.6589422 0.09010066 22.06222534 0.11550903 C24.36560697 0.12553639 26.6689927 0.13466266 28.97238159 0.14285278 C34.6274188 0.1649381 40.28230347 0.19843415 45.93722534 0.24050903 C45.99696866 87.47659472 46.03126978 174.71275179 45.5476678 485.42993778 C45.51254382 497.15011128 45.47945654 508.87028903 45.44752462 520.59047163 C45.40316158 536.8581968 45.35509073 553.1259045 45.30044711 569.39359862 C45.29507646 570.99476435 45.28970991 572.59593011 45.28434753 574.19709587 C45.28171816 574.98185253 45.27908878 575.76660919 45.27637973 576.57514636 C45.25832497 582.03450924 45.24269469 587.49387575 45.22813416 592.95324898 C45.21074037 599.46103105 45.18997419 605.96879084 45.16455066 612.47654672 C45.15181913 615.7573249 45.14120221 619.03808551 45.1338073 622.31888068 C45.1255916 625.84295237 45.11134319 629.36694709 45.09544373 632.89099121 C45.0944656 633.92361951 45.09348747 634.95624782 45.09247971 636.02016789 C45.08700528 636.95198712 45.08153086 637.88380635 45.07589054 638.84386253 C45.07190348 640.0543245 45.07190348 640.0543245 45.06783587 641.28924024 C44.93722534 643.24050903 44.93722534 643.24050903 43.93722534 645.24050903 C-4.90277466 645.24050903 -53.74277466 645.24050903 -104.06277466 645.24050903 C-104.1955481 623.54043091 -104.32832153 601.84035278 -104.46511841 579.48269653 C-104.55131561 565.65587104 -104.63769034 551.82904698 -104.72488403 538.00222778 C-104.77075538 530.72667474 -104.81658243 523.45112142 -104.86233521 516.17556763 C-104.87093639 514.80825833 -104.87093639 514.80825833 -104.87971133 513.41332662 C-104.97153124 498.80672021 -105.06086304 484.20009963 -105.14923268 469.59347199 C-105.24036752 454.5392075 -105.33427606 439.48496204 -105.43062025 424.43072999 C-105.48448678 416.00197546 -105.53716655 407.57321736 -105.58665276 399.14443588 C-105.79849419 363.1688825 -106.09072209 327.2055526 -107.06277466 291.24050903 C-108.03028299 292.75646547 -108.99777318 294.27243349 -109.96525574 295.78840637 C-110.50402879 296.63260982 -111.04280184 297.47681326 -111.59790134 298.34659863 C-117.98558205 308.35825406 -124.3093714 318.40821024 -130.5942688 328.48464966 C-134.398224 334.58202825 -138.21885203 340.66825368 -142.06277466 346.74050903 C-146.5886917 353.89109012 -151.08170413 361.06174352 -155.56277466 368.24050903 C-160.51959706 376.18143867 -165.49782217 384.10807732 -170.50418091 392.01785278 C-174.54700581 398.41090656 -178.55745446 404.82390516 -182.56277466 411.24050903 C-187.51959706 419.18143867 -192.49782217 427.10807732 -197.50418091 435.01785278 C-201.54700581 441.41090656 -205.55745446 447.82390516 -209.56277466 454.24050903 C-214.51959706 462.18143867 -219.49782217 470.10807732 -224.50418091 478.01785278 C-228.54700581 484.41090656 -232.55745446 490.82390516 -236.56277466 497.24050903 C-241.04384556 504.41927514 -245.53693347 511.5898795 -250.06277466 518.74050903 C-256.56380215 529.01237733 -263.00089918 539.32405147 -269.43728638 549.63650513 C-271.64429911 553.17210107 -273.85341825 556.70637725 -276.06277466 560.24050903 C-279.97785693 558.74976206 -281.34473619 556.67746391 -283.46121216 553.13113403 C-284.0983313 552.07740601 -284.73545044 551.02367798 -285.39187622 549.9380188 C-285.89177063 549.09559128 -285.89177063 549.09559128 -286.40176392 548.23614502 C-287.80840696 545.86600868 -289.23701587 543.50940088 -290.66470337 541.15190125 C-291.39635226 539.94344918 -292.12689483 538.73432664 -292.85635376 537.52455139 C-296.25477621 531.89480833 -299.76598806 526.34040529 -303.31277466 520.80300903 C-304.46512379 518.99962706 -305.61746762 517.19624169 -306.76980591 515.39285278 C-307.32233032 514.52901978 -307.87485474 513.66518677 -308.44412231 512.775177 C-316.20694007 500.61928349 -323.85136727 488.38874786 -331.48953247 476.15432739 C-337.31408055 466.82863181 -343.18198211 457.53080385 -349.06277466 448.24050903 C-351.98626908 443.62206266 -354.9077502 439.00240492 -357.82058716 434.37722778 C-360.23922431 430.53769838 -362.67637249 426.71032965 -365.11746216 422.88504028 C-366.49531896 420.71202337 -367.87292612 418.53884814 -369.25027466 416.36550903 C-369.91067749 415.33659546 -370.57108032 414.30768188 -371.25149536 413.24758911 C-371.86339722 412.27845581 -372.47529907 411.30932251 -373.10574341 410.31082153 C-373.65254761 409.45246704 -374.19935181 408.59411255 -374.76272583 407.70974731 C-376.10709251 405.15633425 -376.76160389 403.10483529 -377.06277466 400.24050903 C-375.87527466 398.50222778 -375.87527466 398.50222778 -374.06277466 396.92800903 C-371.40280517 394.49453199 -368.95955944 392.05239757 -366.62527466 389.30300903 C-364.20659687 386.49474556 -361.70377783 383.8408031 -359.06277466 381.24050903 C-356.44236857 378.66041688 -353.95954054 376.02947297 -351.56277466 373.24050903 C-348.54515112 369.72909256 -345.32918385 366.48743501 -342.03152466 363.24050903 C-340.12291011 361.30159901 -338.33566914 359.30351352 -336.56277466 357.24050903 C-333.54515112 353.72909256 -330.32918385 350.48743501 -327.03152466 347.24050903 C-325.12291011 345.30159901 -323.33566914 343.30351352 -321.56277466 341.24050903 C-318.54515112 337.72909256 -315.32918385 334.48743501 -312.03152466 331.24050903 C-310.12291011 329.30159901 -308.33566914 327.30351352 -306.56277466 325.24050903 C-303.54515112 321.72909256 -300.32918385 318.48743501 -297.03152466 315.24050903 C-295.12291011 313.30159901 -293.33566914 311.30351352 -291.56277466 309.24050903 C-288.54515112 305.72909256 -285.32918385 302.48743501 -282.03152466 299.24050903 C-280.12291011 297.30159901 -278.33566914 295.30351352 -276.56277466 293.24050903 C-273.54515112 289.72909256 -270.32918385 286.48743501 -267.03152466 283.24050903 C-265.12291011 281.30159901 -263.33566914 279.30351352 -261.56277466 277.24050903 C-258.54515112 273.72909256 -255.32918385 270.48743501 -252.03152466 267.24050903 C-250.12291011 265.30159901 -248.33566914 263.30351352 -246.56277466 261.24050903 C-243.54635543 257.73049393 -240.33182334 254.48999627 -237.03543091 251.24441528 C-234.48939636 248.65804752 -232.14255909 245.92515623 -229.77761841 243.17410278 C-227.56108069 240.67481765 -225.19115184 238.35769019 -222.80886841 236.01785278 C-220.99799823 234.1745733 -219.30956112 232.26228104 -217.62527466 230.30300903 C-215.20659687 227.49474556 -212.70377783 224.8408031 -210.06277466 222.24050903 C-207.44236857 219.66041688 -204.95954054 217.02947297 -202.56277466 214.24050903 C-199.54515112 210.72909256 -196.32918385 207.48743501 -193.03152466 204.24050903 C-191.12291011 202.30159901 -189.33566914 200.30351352 -187.56277466 198.24050903 C-184.54515112 194.72909256 -181.32918385 191.48743501 -178.03152466 188.24050903 C-176.12291011 186.30159901 -174.33566914 184.30351352 -172.56277466 182.24050903 C-169.54515112 178.72909256 -166.32918385 175.48743501 -163.03152466 172.24050903 C-161.12291011 170.30159901 -159.33566914 168.30351352 -157.56277466 166.24050903 C-154.54515112 162.72909256 -151.32918385 159.48743501 -148.03152466 156.24050903 C-146.12291011 154.30159901 -144.33566914 152.30351352 -142.56277466 150.24050903 C-139.54515112 146.72909256 -136.32918385 143.48743501 -133.03152466 140.24050903 C-131.12291011 138.30159901 -129.33566914 136.30351352 -127.56277466 134.24050903 C-124.54515112 130.72909256 -121.32918385 127.48743501 -118.03152466 124.24050903 C-116.12291011 122.30159901 -114.33566914 120.30351352 -112.56277466 118.24050903 C-109.54515112 114.72909256 -106.32918385 111.48743501 -103.03152466 108.24050903 C-101.12291011 106.30159901 -99.33566914 104.30351352 -97.56277466 102.24050903 C-94.54515112 98.72909256 -91.32918385 95.48743501 -88.03152466 92.24050903 C-86.12291011 90.30159901 -84.33566914 88.30351352 -82.56277466 86.24050903 C-79.54515112 82.72909256 -76.32918385 79.48743501 -73.03152466 76.24050903 C-71.12291011 74.30159901 -69.33566914 72.30351352 -67.56277466 70.24050903 C-64.54515112 66.72909256 -61.32918385 63.48743501 -58.03152466 60.24050903 C-56.12291011 58.30159901 -54.33566914 56.30351352 -52.56277466 54.24050903 C-49.54515112 50.72909256 -46.32918385 47.48743501 -43.03152466 44.24050903 C-41.12291011 42.30159901 -39.33566914 40.30351352 -37.56277466 38.24050903 C-34.54515112 34.72909256 -31.32918385 31.48743501 -28.03152466 28.24050903 C-26.12291011 26.30159901 -24.33566914 24.30351352 -22.56277466 22.24050903 C-19.552377 18.73750084 -16.34502333 15.50280052 -13.05496216 12.26394653 C-10.41412013 9.58167954 -7.95605798 6.76243515 -5.50808716 3.90457153 C-2.35530988 0.27461715 -2.35530988 0.27461715 0 0 Z " fill="#F1F2F2" transform="translate(1394.0627746582031,19.759490966796875)"/>
<path d="M0 0 C51.48 0 102.96 0 156 0 C156 167.97 156 335.94 156 509 C227.94 509 299.88 509 374 509 C379.28 509.33 384.56 509.66 390 510 C390.08007178 525.27702879 389.76239948 540.52228173 389.34375 555.79296875 C389.27626915 558.32171553 389.2090124 560.8504683 389.14196777 563.37922668 C388.98445427 569.30019486 388.82472125 575.22109972 388.66385221 581.14197761 C388.48045438 587.89677029 388.29998416 594.65164027 388.11972713 601.40651739 C387.74968043 615.2710983 387.37606354 629.13558108 387 643 C288.04323723 643.57478516 189.08661626 644.1055261 90.12793803 644.12283063 C83.25856888 644.12411923 76.38920401 644.127874 69.51983643 644.13256836 C60.32931874 644.13862228 51.13881587 644.13872486 41.9482975 644.13431931 C38.58561106 644.13284816 35.22293616 644.13354134 31.86025047 644.13615799 C28.0156331 644.13900315 24.17104866 644.13715503 20.32643485 644.13136959 C18.93261892 644.13006514 17.53880023 644.1304664 16.14498544 644.13267231 C14.26501834 644.13537519 12.38504505 644.13139118 10.50508118 644.12698364 C9.45832875 644.12660662 8.41157633 644.12622959 7.33310413 644.12584114 C5 644 5 644 4 643 C3.88046698 640.04641142 3.82702628 637.11536619 3.81448269 634.16055202 C3.80657535 633.21690775 3.79866801 632.27326348 3.79052106 631.30102393 C3.76490396 628.09632447 3.74645099 624.89162196 3.72789001 621.68687439 C3.71095095 619.38206105 3.69357724 617.07725088 3.67580324 614.77244383 C3.6329987 609.07315125 3.59485447 603.3738404 3.55861411 597.6745026 C3.51495332 590.8488103 3.46555044 584.02316272 3.41593583 577.19751153 C3.32440116 564.58106665 3.23758691 551.9645933 3.15348625 539.34809685 C3.06986006 526.80297311 2.98438805 514.25786436 2.89639473 501.71277046 C2.89091808 500.93168417 2.88544143 500.15059788 2.87979883 499.34584231 C2.85755602 496.17423577 2.83530103 493.00262932 2.81302941 489.83102298 C2.60362687 460.00903703 2.39962862 430.18701632 2.1983141 400.36497478 C2.02045621 374.02136726 1.83900205 347.6777872 1.65405273 321.33422852 C1.64224941 319.65281162 1.63044612 317.97139473 1.61864286 316.28997784 C1.61280677 315.45863473 1.60697068 314.62729163 1.60095774 313.77075631 C1.5715641 309.58354195 1.54217579 305.39632756 1.51279354 301.20911312 C1.50699319 300.38259441 1.50119284 299.55607569 1.49521672 298.70451096 C1.3400392 276.58686019 1.18735285 254.46919225 1.03546149 232.35151869 C1.0300263 231.56010312 1.02459112 230.76868754 1.01899123 229.95328968 C0.9971458 226.77220442 0.97530046 223.59111917 0.95346799 220.41003383 C0.87846247 209.48293029 0.80265524 198.5558326 0.7262893 187.62873848 C0.62734513 173.46905134 0.5302017 159.30935344 0.43580764 145.14963519 C0.38300282 137.2352696 0.32885287 129.32091679 0.27203608 121.40657866 C-0.0087504 80.93559232 0 40.4740159 0 0 Z " fill="#F1F2F2" transform="translate(1554,22)"/>
<path d="M0 0 C6.83715295 -0.1250613 13.67426082 -0.22092096 20.51217842 -0.2929306 C24.48165813 -0.33616254 28.4494327 -0.39557863 32.4179697 -0.49352646 C36.11968762 -0.58465305 39.81956869 -0.63396954 43.52234745 -0.65077972 C45.50159975 -0.67081885 47.48023702 -0.73593636 49.45846653 -0.80263901 C57.88631373 -0.78468348 57.88631373 -0.78468348 61.05197239 2.14802933 C62.61329114 4.45310706 63.81144229 6.72640977 64.99514866 9.24255753 C65.93366465 10.77278012 66.88745834 12.29383356 67.86233616 13.80115128 C68.86662258 15.42641506 69.86914408 17.05277039 70.87014866 18.68005753 C71.4240427 19.57764786 71.97793674 20.47523819 72.54861546 21.40002823 C74.36597163 24.34640528 76.18075926 27.29435272 77.99514866 30.24255753 C79.27508583 32.32068915 80.55503394 34.39881402 81.83499241 36.47693253 C86.57860121 44.18111233 91.31756171 51.88814919 96.0566721 59.59509659 C103.37587952 71.49706666 110.70161587 83.39474336 118.06228733 95.27112198 C123.07730944 103.36650335 128.06545951 111.47833817 133.05374241 119.59021378 C137.18992458 126.31448691 141.33629567 133.03228484 145.49514866 139.74255753 C153.71489575 153.00667525 161.88292966 166.30260119 170.0566721 179.59509659 C176.98366866 190.8592815 183.91298473 202.12197207 190.87014866 213.36755753 C191.3933469 214.21471329 191.91654514 215.06186905 192.45559788 215.9346962 C194.95212381 219.97091758 197.4666015 223.99362376 200.02249241 227.99255753 C200.49380589 228.73360733 200.96511936 229.47465714 201.45071507 230.23816299 C202.32867482 231.61591848 203.21211624 232.99020264 204.10208225 234.36023331 C206.99514866 238.90821632 206.99514866 238.90821632 206.99514866 242.24255753 C205.58425999 243.6143837 205.58425999 243.6143837 203.57717991 245.03552628 C202.8282346 245.57499893 202.07928928 246.11447159 201.30764866 246.6702919 C200.48264866 247.25101456 199.65764866 247.83173721 198.80764866 248.43005753 C197.05249725 249.69265132 195.29863644 250.95704073 193.54592991 252.22302628 C192.63021214 252.88222061 191.71449436 253.54141495 190.77102757 254.22058487 C186.2880728 257.4860054 181.89368923 260.86477705 177.49514866 264.24255753 C166.98520605 272.28571328 156.33878934 280.1331972 145.66116428 287.9515419 C136.54147667 294.63321779 127.4758667 301.37490104 118.49514866 308.24255753 C115.87655492 310.23963725 113.25706384 312.23552794 110.63675022 314.23035049 C108.84562867 315.59471499 107.05595979 316.96098825 105.2676096 318.32898331 C102.64297872 320.33164363 100.00810624 322.31999951 97.37014866 324.30505753 C96.57028538 324.91929581 95.7704221 325.53353409 94.94632053 326.16638565 C94.20704319 326.71874893 93.46776585 327.27111221 92.70608616 327.84021378 C92.05946018 328.33013809 91.41283421 328.82006241 90.7466135 329.32483292 C90.1686301 329.62768204 89.59064671 329.93053116 88.99514866 330.24255753 C84.94518255 328.89256882 83.95130849 326.30216684 81.93264866 322.77771378 C81.54125706 322.11154541 81.14986546 321.44537704 80.7466135 320.75902176 C79.48766753 318.612517 78.24103174 316.45916572 76.99514866 314.30505753 C75.3731611 311.52334561 73.74646643 308.74439559 72.12014866 305.96521378 C71.71417454 305.26925095 71.30820042 304.57328812 70.88992405 303.8562355 C66.04791583 295.5770094 61.02297922 287.40979512 55.99514866 279.24255753 C56.01735477 280.13934219 56.03956089 281.03612686 56.06243992 281.96008682 C56.26325832 290.43375184 56.41527868 298.90661207 56.51327038 307.38211441 C56.56534638 311.73913885 56.63590332 316.09418901 56.74954319 320.45007706 C56.85863757 324.65833109 56.91807693 328.86469365 56.94392109 333.07425308 C56.96232316 334.67560987 56.99826361 336.27686913 57.05244923 337.8774147 C57.45950818 350.40567747 57.45950818 350.40567747 53.82087803 354.969944 C51.30083012 357.00843844 48.81262529 358.65018143 45.99514866 360.24255753 C44.86090768 361.05353167 43.73546358 361.87712691 42.62405491 362.71912003 C41.61214085 363.4281044 40.60022678 364.13708878 39.55764866 364.86755753 C33.90085556 368.86035545 28.31163791 372.93738055 22.74514866 377.05505753 C16.52201039 381.65560795 10.27661805 386.22197038 3.99514866 390.74255753 C-2.20143263 395.2027118 -8.36469109 399.70504922 -14.50485134 404.24255753 C-21.38188694 409.3246083 -28.29518218 414.3525855 -35.23532009 419.34802628 C-40.68568972 423.27647768 -46.10159151 427.24961021 -51.50485134 431.24255753 C-58.37071629 436.31635332 -65.26255388 441.35107082 -72.20675564 446.31726456 C-76.24924435 449.21652659 -80.23686873 452.17096016 -84.18063259 455.20349503 C-85.03850368 455.85640518 -85.89637478 456.50931534 -86.78024197 457.18201065 C-88.43825531 458.44689997 -90.08718525 459.72380953 -91.72555447 461.0140419 C-92.47385525 461.58187393 -93.22215603 462.14970596 -93.99313259 462.73474503 C-94.97600246 463.49827286 -94.97600246 463.49827286 -95.97872829 464.27722549 C-98.72302861 465.58472802 -100.14884144 465.15217809 -103.00485134 464.24255753 C-105.47278453 462.74728036 -107.78779396 461.22654077 -110.12985134 459.55505753 C-110.82143337 459.06956436 -111.5130154 458.5840712 -112.22555447 458.08386612 C-114.49429982 456.48230968 -116.75093219 454.86490481 -119.00485134 453.24255753 C-119.77796658 452.68777725 -120.55108181 452.13299698 -121.34762478 451.56140518 C-131.93941074 443.93313542 -142.22090797 435.99652458 -152.27242947 427.67078018 C-154.74796011 425.62993262 -157.25483349 423.62828617 -159.75485134 421.61755753 C-165.7217368 416.71936797 -171.40255785 411.54816716 -177.00485134 406.24255753 C-177.54964138 405.73176651 -178.09443142 405.22097549 -178.65573025 404.69470596 C-196.44442497 387.92383664 -196.44442497 387.92383664 -200.00485134 377.24255753 C-192.0982008 377.71303733 -184.61725577 378.72462593 -176.94235134 380.68005753 C-175.41855862 381.06605118 -175.41855862 381.06605118 -173.8639822 381.45984268 C-120.73734651 395.51006236 -120.73734651 395.51006236 -105.00485134 411.24255753 C-105.0006194 410.13198895 -104.99638746 409.02142038 -104.99202728 407.87719822 C-104.85636685 372.30638206 -104.717409 336.73557903 -104.57575244 301.16478628 C-104.56737825 299.06181412 -104.55900983 296.95884195 -104.55064154 294.85586977 C-104.25017988 219.38017567 -103.91793566 143.90489356 -103.44235134 68.43005753 C-103.43680186 67.54833138 -103.43125237 66.66660523 -103.42553473 65.75816011 C-103.29009314 44.25292728 -103.15057542 22.74772329 -103.00485134 1.24255753 C-97.37075143 1.16848379 -91.73663559 1.09571294 -86.10250759 1.02380753 C-85.22213078 1.01256725 -84.34175396 1.00132698 -83.43469906 0.98974609 C-72.60884751 0.85239404 -61.78296349 0.72587515 -50.95675564 0.61999893 C-49.44204788 0.60515048 -49.44204788 0.60515048 -47.89673996 0.59000206 C-43.77296481 0.54978229 -39.64918782 0.50981798 -35.52539921 0.47100067 C-23.68255183 0.35902329 -11.84139486 0.21830102 0 0 Z " fill="#F1F2F2" transform="translate(882.0048513412476,17.757442474365234)"/>
<path d="M0 0 C1.03088956 36.10306855 1.08848207 72.19742202 1.0625 108.3125 C1.06164398 109.51074402 1.06078796 110.70898804 1.05990601 111.94354248 C1.04839102 126.96237613 1.02813886 141.98118865 1 157 C-34.96314933 157.89489813 -70.90148989 158.08919896 -106.875 158.0625 C-108.03651455 158.06164398 -109.1980291 158.06078796 -110.39474106 158.05990601 C-124.92984239 158.04840793 -139.4649218 158.02817891 -154 158 C-153.06314357 156.89523466 -152.1245718 155.79192384 -151.18530273 154.68920898 C-150.40158546 153.76736061 -150.40158546 153.76736061 -149.60203552 152.82688904 C-146.7651046 149.59178099 -143.66907799 146.62651963 -140.58789062 143.62695312 C-137.91791565 140.99896989 -135.39158644 138.31979081 -132.96484375 135.46484375 C-126.94220811 128.5015077 -120.22154519 122.16836608 -113.67919922 115.69970703 C-105.86183665 108.06488715 -105.86183665 108.06488715 -98.5 100 C-92.68329203 93.15723919 -86.0602847 87.00892187 -79.67919922 80.69970703 C-71.86183665 73.06488715 -71.86183665 73.06488715 -64.5 65 C-58.68329203 58.15723919 -52.0602847 52.00892187 -45.67919922 45.69970703 C-37.04709317 37.1656941 -37.04709317 37.1656941 -28.92285156 28.15429688 C-24.62657351 23.34089445 -19.98745136 18.84072198 -15.41845703 14.28808594 C-13.60460383 12.47966491 -11.7962482 10.66586636 -9.98828125 8.8515625 C-8.83886279 7.7028036 -7.68913483 6.55435427 -6.5390625 5.40625 C-5.9974649 4.86262817 -5.45586731 4.31900635 -4.89785767 3.75891113 C-1.11499614 0 -1.11499614 0 0 0 Z " fill="#F1F2F2" transform="translate(938,514)"/>
<path d="M0 0 C31.68 0 63.36 0 96 0 C90.36734694 5.63265306 90.36734694 5.63265306 87.6171875 8.015625 C86.71081543 8.80211426 86.71081543 8.80211426 85.78613281 9.60449219 C84.84012207 10.41901855 84.84012207 10.41901855 83.875 11.25 C83.21338867 11.82137695 82.55177734 12.39275391 81.87011719 12.98144531 C76.32593499 17.75314349 70.69015465 22.40344865 65 27 C59.09536407 31.79643447 53.2324182 36.63436478 47.4375 41.5625 C42.88347557 45.43534988 38.26505442 49.20622303 33.578125 52.91796875 C30.59032832 55.33084092 27.66943803 57.81796079 24.75 60.3125 C20.2936082 64.11744166 15.75828313 67.78798412 11.125 71.375 C5.35246529 75.84984563 -0.17759172 80.55823743 -5.67089844 85.37011719 C-9.85594814 89.03012145 -14.12287526 92.54907013 -18.4921875 95.98828125 C-21.46240316 98.37093089 -24.35600849 100.83857627 -27.25 103.3125 C-31.70629393 107.11755003 -36.24172304 110.7879889 -40.875 114.375 C-46.64753471 118.84984563 -52.17759172 123.55823743 -57.67089844 128.37011719 C-61.84690992 132.02221714 -66.10319005 135.53522957 -70.46484375 138.96484375 C-73.59378371 141.47667382 -76.63795766 144.08034691 -79.6875 146.6875 C-83.98399096 150.35548 -88.31398133 153.83966182 -93 157 C-93 153.63777793 -92.41114309 152.63879479 -90.71875 149.80859375 C-90.214646 148.95958496 -89.71054199 148.11057617 -89.19116211 147.23583984 C-88.63307861 146.3123877 -88.07499512 145.38893555 -87.5 144.4375 C-86.63290405 142.98657959 -86.63290405 142.98657959 -85.74829102 141.50634766 C-80.5292336 132.80399053 -75.20547635 124.1655125 -69.87280273 115.5324707 C-65.89302043 109.08840033 -61.9474128 102.62669343 -58.0625 96.125 C-53.34499225 88.23016432 -48.58841923 80.3596037 -43.8125 72.5 C-43.45310333 71.90850159 -43.09370667 71.31700317 -42.72341919 70.70758057 C-40.88444209 67.68116903 -39.04509381 64.65498332 -37.20556641 61.62890625 C-35.04607061 58.07620656 -32.88801037 54.52263672 -30.73046875 50.96875 C-30.20529411 50.10369339 -30.20529411 50.10369339 -29.66950989 49.22116089 C-28.26460048 46.9069425 -26.85975636 44.59268449 -25.45498657 42.27838135 C-21.77270298 36.21198684 -18.0895028 30.14615695 -14.40197754 24.08294678 C-12.81633773 21.47562197 -11.23126602 18.86795202 -9.64624023 16.26025391 C-8.88692257 15.01138255 -8.12732332 13.76268234 -7.36743164 12.51416016 C-6.31716938 10.78851282 -5.26793417 9.06224052 -4.21875 7.3359375 C-3.61998047 6.35157715 -3.02121094 5.3672168 -2.40429688 4.35302734 C-1.01325495 2.08846834 -1.01325495 2.08846834 0 0 Z " fill="#F1F2F2" transform="translate(1288,19)"/>
</svg>
